<svg class="diagram-root" style="background: #f5f6f6" xmlns="http://www.w3.org/2000/svg" xmlns:xlink="http://www.w3.org/1999/xlink"><style>.diagram-root { font-family: "Helvetica Neue", sans-serif; font-size: 12px; } .t { overflow: visible; } .t-bg { y: 40; fill: #fff;   } .th { fill: #005aa0;   } .tht { fill: #fff; font-size: 14px;  } .tf { fill: #323c46; overflow: visible; } .tf.pk { fill: #005aa0; font-weight: bold; } .tf.fk { font-weight: bold; } .ty { fill: #adb1b5; font-weight: normal; text-anchor: end; } .r { fill: transparent; stroke: #c3c3c3; stroke-width: 1; } .l { stroke: 1; } .i { fill: #c2c7ce; stroke: #c2c7ce; } .i.ix { fill: #afb3b6; stroke: #000; } .fa { fill: transparent; overflow: visible; } .fa .bg.hover { fill: #f7f7f7; } .c { cy: 12; r: 4; stroke: #d2d2dc; fill: #d2d2dc; } .hr { fill: transparent; stroke: #323c46; stroke-opacity: 0.035; stroke-width: 13; } .dc { stroke: #fa5a3c; fill: #fa5a3c; } .x { stroke: white; stroke-width: 1; } .hl .th { fill: #1b9bff; } .hl .tht {  } .fhl .bg { fill: #e7f4ff; } .fhls .bg {  } .r.hl { stroke: #1b9bff; } .dim { opacity: 0.25; }</style><g class="drawing-wrapper" transform="translate(2, 18) scale(1,1)"><g class="rs"><path d="M 318.84 477 m -1, 0 a 1,1 0 1,0 2,0 a 1,1 0 1,0 -2,0 M 318.84 477 m -0.5, 0 a 0.5,0.5 0 1,0 1,0 a 0.5,0.5 0 1,0 -1,0  M318.84 477 L318.84 477 330.84 477 M 318.84 483 m -1, 0 a 1,1 0 1,0 2,0 a 1,1 0 1,0 -2,0 M 318.84 483 m -0.5, 0 a 0.5,0.5 0 1,0 1,0 a 0.5,0.5 0 1,0 -1,0  M318.84 483 L318.84 483 325.84 477 318.84 471 M 318.84 471 m -1, 0 a 1,1 0 1,0 2,0 a 1,1 0 1,0 -2,0 M 318.84 471 m -0.5, 0 a 0.5,0.5 0 1,0 1,0 a 0.5,0.5 0 1,0 -1,0  M330.84 477 Q 382.88 477, 434.92 276.39 T 539 75.78 M 551 75.78 m -1, 0 a 1,1 0 1,0 2,0 a 1,1 0 1,0 -2,0 M 551 75.78 m -0.5, 0 a 0.5,0.5 0 1,0 1,0 a 0.5,0.5 0 1,0 -1,0  M551 75.78 L551 75.78 539 75.78 M545 81.78 L545 81.78 545 69.78" id="h133153459" class="r"></path><path d="M 557 388 m -1, 0 a 1,1 0 1,0 2,0 a 1,1 0 1,0 -2,0 M 557 388 m -0.5, 0 a 0.5,0.5 0 1,0 1,0 a 0.5,0.5 0 1,0 -1,0  M557 388 L557 388 545 388 M 557 394 m -1, 0 a 1,1 0 1,0 2,0 a 1,1 0 1,0 -2,0 M 557 394 m -0.5, 0 a 0.5,0.5 0 1,0 1,0 a 0.5,0.5 0 1,0 -1,0  M557 394 L557 394 550 388 557 382 M 557 382 m -1, 0 a 1,1 0 1,0 2,0 a 1,1 0 1,0 -2,0 M 557 382 m -0.5, 0 a 0.5,0.5 0 1,0 1,0 a 0.5,0.5 0 1,0 -1,0  M545 388 Q 491.46 388, 437.92 420 T 330.84 452 M 318.84 452 m -1, 0 a 1,1 0 1,0 2,0 a 1,1 0 1,0 -2,0 M 318.84 452 m -0.5, 0 a 0.5,0.5 0 1,0 1,0 a 0.5,0.5 0 1,0 -1,0  M318.84 452 L318.84 452 330.84 452 M324.84 458 L324.84 458 324.84 446" id="h221257298" class="r"></path><path d="M 46 273 m -1, 0 a 1,1 0 1,0 2,0 a 1,1 0 1,0 -2,0 M 46 273 m -0.5, 0 a 0.5,0.5 0 1,0 1,0 a 0.5,0.5 0 1,0 -1,0  M46 273 L46 273 34 273 M 46 279 m -1, 0 a 1,1 0 1,0 2,0 a 1,1 0 1,0 -2,0 M 46 279 m -0.5, 0 a 0.5,0.5 0 1,0 1,0 a 0.5,0.5 0 1,0 -1,0  M46 279 L46 279 39 273 46 267 M 46 267 m -1, 0 a 1,1 0 1,0 2,0 a 1,1 0 1,0 -2,0 M 46 267 m -0.5, 0 a 0.5,0.5 0 1,0 1,0 a 0.5,0.5 0 1,0 -1,0  M34 273 C -41.6 273, -32 87, 18 87 M 30 87 m -1, 0 a 1,1 0 1,0 2,0 a 1,1 0 1,0 -2,0 M 30 87 m -0.5, 0 a 0.5,0.5 0 1,0 1,0 a 0.5,0.5 0 1,0 -1,0  M30 87 L30 87 18 87 M24 93 L24 93 24 81" id="h4108668164" class="r"></path><path d="M 46 298 m -1, 0 a 1,1 0 1,0 2,0 a 1,1 0 1,0 -2,0 M 46 298 m -0.5, 0 a 0.5,0.5 0 1,0 1,0 a 0.5,0.5 0 1,0 -1,0  M46 298 L46 298 34 298 M 46 304 m -1, 0 a 1,1 0 1,0 2,0 a 1,1 0 1,0 -2,0 M 46 304 m -0.5, 0 a 0.5,0.5 0 1,0 1,0 a 0.5,0.5 0 1,0 -1,0  M46 304 L46 304 39 298 46 292 M 46 292 m -1, 0 a 1,1 0 1,0 2,0 a 1,1 0 1,0 -2,0 M 46 292 m -0.5, 0 a 0.5,0.5 0 1,0 1,0 a 0.5,0.5 0 1,0 -1,0  M34 298 C -16 298, -65.80000000000001 452, 117 452 M 129 452 m -1, 0 a 1,1 0 1,0 2,0 a 1,1 0 1,0 -2,0 M 129 452 m -0.5, 0 a 0.5,0.5 0 1,0 1,0 a 0.5,0.5 0 1,0 -1,0  M129 452 L129 452 117 452 M123 458 L123 458 123 446" id="h175481269" class="r"></path><path d="M 623.89 214.78 m -1, 0 a 1,1 0 1,0 2,0 a 1,1 0 1,0 -2,0 M 623.89 214.78 m -0.5, 0 a 0.5,0.5 0 1,0 1,0 a 0.5,0.5 0 1,0 -1,0  M623.89 214.78 L623.89 214.78 611.89 214.78 M 623.89 220.78 m -1, 0 a 1,1 0 1,0 2,0 a 1,1 0 1,0 -2,0 M 623.89 220.78 m -0.5, 0 a 0.5,0.5 0 1,0 1,0 a 0.5,0.5 0 1,0 -1,0  M623.89 220.78 L623.89 220.78 616.89 214.78 623.89 208.78 M 623.89 208.78 m -1, 0 a 1,1 0 1,0 2,0 a 1,1 0 1,0 -2,0 M 623.89 208.78 m -0.5, 0 a 0.5,0.5 0 1,0 1,0 a 0.5,0.5 0 1,0 -1,0  M611.89 214.78 Q 541.63 214.78, 471.37 333.39 T 330.84 452 M 318.84 452 m -1, 0 a 1,1 0 1,0 2,0 a 1,1 0 1,0 -2,0 M 318.84 452 m -0.5, 0 a 0.5,0.5 0 1,0 1,0 a 0.5,0.5 0 1,0 -1,0  M318.84 452 L318.84 452 330.84 452 M324.84 458 L324.84 458 324.84 446" id="h219041670" class="r"></path><path d="M 623.89 239.78 m -1, 0 a 1,1 0 1,0 2,0 a 1,1 0 1,0 -2,0 M 623.89 239.78 m -0.5, 0 a 0.5,0.5 0 1,0 1,0 a 0.5,0.5 0 1,0 -1,0  M623.89 239.78 L623.89 239.78 611.89 239.78 M 623.89 245.78 m -1, 0 a 1,1 0 1,0 2,0 a 1,1 0 1,0 -2,0 M 623.89 245.78 m -0.5, 0 a 0.5,0.5 0 1,0 1,0 a 0.5,0.5 0 1,0 -1,0  M623.89 245.78 L623.89 245.78 616.89 239.78 623.89 233.78 M 623.89 233.78 m -1, 0 a 1,1 0 1,0 2,0 a 1,1 0 1,0 -2,0 M 623.89 233.78 m -0.5, 0 a 0.5,0.5 0 1,0 1,0 a 0.5,0.5 0 1,0 -1,0  M611.89 239.78 Q 520.55 239.78, 429.21 163.39 T 246.52 87 M 234.52 87 m -1, 0 a 1,1 0 1,0 2,0 a 1,1 0 1,0 -2,0 M 234.52 87 m -0.5, 0 a 0.5,0.5 0 1,0 1,0 a 0.5,0.5 0 1,0 -1,0  M234.52 87 L234.52 87 246.52 87 M240.52 93 L240.52 93 240.52 81" id="h3473972" class="r"></path></g><g class="hrs"></g><g class="ts"><svg width="204.52" height="100" x="30" y="30" id="h3708248841" class="t"><rect height="40" width="204.52" class="th"></rect><text x="13" y="25" class="tht">Departments</text><rect height="60" width="204.52" class="t-bg" y="40"></rect><text x="13" y="61" class="tf pk">dept_no_id<tspan x="191.52" class="ty">VARCHAR(10)</tspan></text><path d="M7,14A2,2 0 0,1 5,12A2,2 0 0,1 7,10A2,2 0 0,1 9,12A2,2 0 0,1 7,14M12.65,10C11.83,7.67 9.61,6 7, 6A6, 6 0 0, 0 1, 12A6, 6 0 0, 0 7, 18C9.61, 18 11.83, 16.33 12.65, 14H17V18H21V14H23V10H12.65Z" class="i pk" transform="translate(92.38914062500001, 48) scale(0.65)"></path><text x="13" y="86" class="tf">dept_name<tspan x="191.52" class="ty">VARCHAR(25)</tspan></text></svg><svg width="179.82" height="100" x="551" y="18.78" id="h3517680912" class="t"><rect height="40" width="179.82" class="th"></rect><text x="13" y="25" class="tht">Titles</text><rect height="60" width="179.82" class="t-bg" y="40"></rect><text x="13" y="61" class="tf pk">title_id<tspan x="166.82" class="ty">VARCHAR(10)</tspan></text><path d="M7,14A2,2 0 0,1 5,12A2,2 0 0,1 7,10A2,2 0 0,1 9,12A2,2 0 0,1 7,14M12.65,10C11.83,7.67 9.61,6 7, 6A6, 6 0 0, 0 1, 12A6, 6 0 0, 0 7, 18C9.61, 18 11.83, 16.33 12.65, 14H17V18H21V14H23V10H12.65Z" class="i pk" transform="translate(67.689140625, 48) scale(0.65)"></path><text x="13" y="86" class="tf">title<tspan x="166.82" class="ty">VARCHAR(25)</tspan></text></svg><svg width="189.84" height="225" x="129" y="395" id="h3299212598" class="t"><rect height="40" width="189.84" class="th"></rect><text x="13" y="25" class="tht">Employees</text><rect height="185" width="189.84" class="t-bg" y="40"></rect><text x="13" y="61" class="tf pk">emp_no<tspan x="176.84" class="ty">INTEGER</tspan></text><path d="M7,14A2,2 0 0,1 5,12A2,2 0 0,1 7,10A2,2 0 0,1 9,12A2,2 0 0,1 7,14M12.65,10C11.83,7.67 9.61,6 7, 6A6, 6 0 0, 0 1, 12A6, 6 0 0, 0 7, 18C9.61, 18 11.83, 16.33 12.65, 14H17V18H21V14H23V10H12.65Z" class="i pk" transform="translate(103.502109375, 48) scale(0.65)"></path><text x="13" y="86" class="tf fk">emp_title_id<tspan x="176.84" class="ty">VARCHAR(10)</tspan></text><text x="13" y="111" class="tf">birth_date<tspan x="176.84" class="ty">DATE</tspan></text><text x="13" y="136" class="tf">first_name<tspan x="176.84" class="ty">VARCHAR(25)</tspan></text><text x="13" y="161" class="tf">last_name<tspan x="176.84" class="ty">VARCHAR(25)</tspan></text><text x="13" y="186" class="tf">sex<tspan x="176.84" class="ty">VARCHAR(10)</tspan></text><text x="13" y="211" class="tf">hire_date<tspan x="176.84" class="ty">DATE</tspan></text></svg><svg width="162.7" height="100" x="557" y="331" id="h3858243705" class="t"><rect height="40" width="162.7" class="th"></rect><text x="13" y="25" class="tht">Salaries</text><rect height="60" width="162.7" class="t-bg" y="40"></rect><text x="13" y="61" class="tf pk">emp_no<tspan x="149.7" class="ty">INTEGER</tspan></text><path d="M7,14A2,2 0 0,1 5,12A2,2 0 0,1 7,10A2,2 0 0,1 9,12A2,2 0 0,1 7,14M12.65,10C11.83,7.67 9.61,6 7, 6A6, 6 0 0, 0 1, 12A6, 6 0 0, 0 7, 18C9.61, 18 11.83, 16.33 12.65, 14H17V18H21V14H23V10H12.65Z" class="i pk" transform="translate(76.36210937499999, 48) scale(0.65)"></path><text x="13" y="86" class="tf">salary<tspan x="149.7" class="ty">INTEGER</tspan></text></svg><svg width="168.51" height="100" x="46" y="216" id="h2951077092" class="t"><rect height="40" width="168.51" class="th"></rect><text x="13" y="25" class="tht">Department_Manager</text><rect height="60" width="168.51" class="t-bg" y="40"></rect><text x="13" y="61" class="tf fk">dept_no<tspan x="155.51" class="ty">VARCHAR(10)</tspan></text><text x="13" y="86" class="tf fk">emp_no<tspan x="155.51" class="ty">INTEGER</tspan></text></svg><svg width="169.19" height="100" x="623.89" y="157.78" id="h518886252" class="t"><rect height="40" width="169.19" class="th"></rect><text x="13" y="25" class="tht">Department_Employee</text><rect height="60" width="169.19" class="t-bg" y="40"></rect><text x="13" y="61" class="tf fk">emp_no<tspan x="156.19" class="ty">INTEGER</tspan></text><text x="13" y="86" class="tf fk">dept_no<tspan x="156.19" class="ty">VARCHAR(10)</tspan></text></svg></g></g><text class="qdbd-link" x="10" y="20">www.quickdatabasediagrams.com</text></svg>